<svg xmlns="http://www.w3.org/2000/svg" width="56.48" height="56.48"><path d="M24.25 26.305h-4.284v-5.367h4.284v1.118h-3.002v.967h2.931v1.1h-2.931v1.072h3.002v1.11zm-9.547 0l-1.863-4.206v4.207h-2.61l-.493-1.197h-2.67l-.498 1.197H5.176l2.297-5.367h1.904l2.183 5.082v-5.082h2.094l1.679 3.641 1.541-3.641h2.138v5.367h-1.315l-.005-4.203-1.86 4.203-1.129-.001zm-5.43-2.315l-.877-2.139-.872 2.139h1.749zm20.749 7.954c0 1.491-1.112 1.799-2.233 1.799h-1.6v1.8h-2.493l-1.58-1.777-1.642 1.777h-5.081v-5.367h5.158l1.58 1.758 1.632-1.758h4.098c1.018-.001 2.161.282 2.161 1.768zm-8.731.905l-1.403-1.563h-3.215v.976h2.815v1.096h-2.815v1.068h3.152l1.466-1.577zm3.62-2.098l-1.97 2.116 1.97 2.188v-4.304zm3.734 1.193c0-.47-.32-.659-.784-.659h-1.672v1.367h1.656c.494.001.8-.244.8-.708zm-2.221-5.639H25.14v-5.367h2.95c.655 0 1.138.017 1.554.257.404.24.648.59.648 1.189 0 .855-.57 1.298-.904 1.43.281.107.521.296.635.452.182.267.213.505.213.984v1.055h-1.294l-.006-.677c0-.323.031-.787-.202-1.045-.187-.188-.473-.229-.935-.229h-1.375v1.951zm-.002-3.057h1.559c.249 0 .457-.003.635-.11.165-.087.264-.276.264-.51 0-.23-.103-.396-.269-.474-.152-.086-.386-.097-.608-.097h-1.58l-.001 1.191zm5.922-2.309h-1.309v5.367h1.309v-5.367zm1.316 4.773c-.452-.456-.688-1.074-.688-2.049 0-.796.141-1.524.691-2.099.413-.428 1.064-.625 1.948-.625h1.241v1.15h-1.215c-.471 0-.734.07-.988.318-.219.226-.368.652-.368 1.216 0 .574.112.989.353 1.259.197.213.559.277.894.277h.575l1.812-4.22h1.921l2.172 5.076v-5.076h1.953l2.256 3.738v-3.738h1.312v5.367h-1.816l-2.434-4.028v4.028h-2.611l-.5-1.197h-2.664l-.482 1.197H35.52c-.625-.001-1.414-.139-1.86-.594zm4.303-1.722h1.77l-.889-2.139-.881 2.139zm-2.693-.949c-.012.017-.102.21-.102.582 0 .368.059.545.102.625.045.012.128.026.252.026l.556-1.299h-.438c-.302-.001-.333.031-.37.066zm21.21-11.648v33.695c0 .803-.65 1.454-1.454 1.454H1.454A1.454 1.454 0 0 1 0 45.087V11.393c0-.803.65-1.454 1.454-1.454h53.572c.804 0 1.454.651 1.454 1.454zM14.703 27.192h1.127a.884.884 0 0 0 .81-.528l.17-.38v.022c0 .489.396.885.886.885h1.315c.18 0 .337-.068.478-.159a.87.87 0 0 0 .478.159h4.284a.855.855 0 0 0 .444-.137.867.867 0 0 0 .445.137h1.284a.886.886 0 0 0 .886-.886v-1.066h.489c.111 0 .19.003.249.007.006.091.004.199.004.271l-.002.118.005.677c.004.486.4.879.887.879h1.294a.853.853 0 0 0 .398-.107.875.875 0 0 0 .401.107h1.31c.429 0 .769-.31.852-.714.729.611 1.751.714 2.322.714h1.502c.359 0 .685-.22.818-.555l.262-.643h1.478l.271.652a.89.89 0 0 0 .818.545h2.611a.887.887 0 0 0 .886-.886v-.847l.787 1.305a.887.887 0 0 0 .761.428h1.816a.887.887 0 0 0 .886-.886v-5.367a.886.886 0 0 0-.886-.886h-1.312a.887.887 0 0 0-.888.886v.554l-.61-1.011a.883.883 0 0 0-.758-.428h-1.953a.887.887 0 0 0-.887.886v.753l-.471-1.102a.889.889 0 0 0-.814-.537h-1.921a.881.881 0 0 0-.53.176.878.878 0 0 0-.529-.176h-1.241c-1.052 0-1.834.256-2.408.753a.874.874 0 0 0-.86-.753h-1.309a.882.882 0 0 0-.789.499c-.055-.04-.099-.087-.16-.124-.603-.348-1.234-.375-1.997-.375h-2.95a.864.864 0 0 0-.445.137.855.855 0 0 0-.444-.137h-4.284a.862.862 0 0 0-.478.159.868.868 0 0 0-.478-.159h-2.138a.884.884 0 0 0-.814.541l-.762 1.796-.839-1.822a.891.891 0 0 0-.805-.515H11.56a.886.886 0 0 0-.886.886v.771l-.481-1.122a.888.888 0 0 0-.815-.536H7.474a.887.887 0 0 0-.815.537l-2.296 5.367a.888.888 0 0 0 .814 1.235h1.394c.356 0 .68-.216.816-.546l.271-.652h1.486l.267.648c.137.332.46.549.82.549h2.609a.886.886 0 0 0 .886-.886v-.021l.168.381a.883.883 0 0 0 .809.529zm37.487 6.657c0-.75-.2-1.308-.64-1.76l-.026-.026a.884.884 0 0 0 .405-.746v-1.142a.886.886 0 0 0-.885-.887h-2.572c-.801 0-1.402.235-1.842.592a.88.88 0 0 0-.828-.592h-2.57c-.706 0-1.266.176-1.688.462a.878.878 0 0 0-.764-.462H36.5a.875.875 0 0 0-.781.489c-.062-.042-.105-.093-.172-.132-.619-.331-1.279-.357-1.961-.357h-2.962a.876.876 0 0 0-.784.493c-.449-.294-1.081-.493-1.979-.493h-4.098a.885.885 0 0 0-.65.283l-.971 1.048-.932-1.037a.878.878 0 0 0-.659-.294h-5.158a.886.886 0 0 0-.886.887v5.367c0 .489.396.887.886.887h5.081a.887.887 0 0 0 .65-.285l.979-1.06.929 1.046c.168.189.41.297.663.297h2.493c.49 0 .887-.396.887-.886v-.915h.713c.866 0 1.494-.178 1.949-.449v1.364c0 .489.396.886.887.886h1.289a.886.886 0 0 0 .886-.886v-1.075h.484c.118 0 .201.004.26.008.006.095.006.211.004.287v.78c0 .489.396.886.887.886h1.287a.871.871 0 0 0 .39-.1c.118.061.249.1.392.1h4.28a.87.87 0 0 0 .384-.096.873.873 0 0 0 .385.096h2.498c.797 0 1.441-.194 1.928-.539a.888.888 0 0 0 .815.539h2.498c1.816.002 2.899-.963 2.899-2.578zm-7.975-1.568l-.689-.02c-.219 0-.363-.014-.5-.061a.412.412 0 0 1-.28-.4c0-.17.052-.299.194-.387.128-.087.279-.097.514-.097h2.352v-1.142h-2.57c-1.346 0-1.834.818-1.834 1.598 0 1.697 1.503 1.621 2.701 1.66.225 0 .359.037.457.119.09.076.156.198.156.355a.475.475 0 0 1-.15.35c-.108.102-.281.133-.523.133h-2.488v1.151h2.498c1.293 0 2.016-.539 2.016-1.694 0-.551-.135-.879-.385-1.137-.295-.292-.773-.411-1.469-.428zm-9.334.767c.284.104.519.295.627.451.183.262.209.506.213.979v1.064h-1.287v-.671c0-.323.031-.801-.207-1.051-.188-.192-.473-.238-.941-.238h-1.37v1.96h-1.288v-5.367h2.961c.649 0 1.121.027 1.545.252.403.244.658.58.658 1.192-.002.859-.575 1.296-.911 1.429zm-.51-1.182c0-.229-.099-.396-.265-.483-.156-.092-.386-.097-.612-.097h-1.58v1.206h1.559c.25 0 .463-.009.635-.111.164-.1.263-.286.263-.515zm2.131 3.676h4.28v-1.113l-3.004-.006v-1.067h2.93v-1.095h-2.93v-.977h3.004v-1.109h-4.28v5.367zm12.954-3.261l-.69-.02c-.217 0-.362-.014-.5-.061a.414.414 0 0 1-.279-.4c0-.17.052-.299.193-.387.129-.087.281-.097.515-.097h2.353v-1.142h-2.572c-1.344 0-1.834.818-1.834 1.598 0 1.697 1.504 1.621 2.703 1.66.224 0 .357.037.457.119a.461.461 0 0 1 .155.355.481.481 0 0 1-.149.35c-.109.102-.282.133-.524.133h-2.487v1.151h2.498c1.293 0 2.014-.539 2.014-1.694 0-.551-.133-.879-.385-1.137-.293-.292-.772-.411-1.468-.428z"/></svg>