<svg xmlns="http://www.w3.org/2000/svg" viewBox="0 0 321.2 321.2" width="512" height="512"><path d="M306.4 313.2l-24-223.6c-.4-3.6-3.6-6.4-7.2-6.4h-44.4V69.6c0-38.4-31.2-69.6-69.6-69.6-38.4 0-69.6 31.2-69.6 69.6v13.6H46c-3.6 0-6.8 2.8-7.2 6.4l-24 223.6c-.4 2 .4 4 1.6 5.6 1.2 1.6 3.2 2.4 5.2 2.4h278c2 0 4-.8 5.2-2.4 1.2-1.6 2-3.6 1.6-5.6zm-82.8-189.6c3.6 0 6.4 2.8 6.4 6.4 0 3.6-2.8 6.4-6.4 6.4-3.6 0-6.4-2.8-6.4-6.4 0-3.6 2.8-6.4 6.4-6.4zM106 69.6c0-30.4 24.8-55.2 55.2-55.2 30.4 0 55.2 24.8 55.2 55.2v13.6H106V69.6zm-7.2 54c3.6 0 6.4 2.8 6.4 6.4 0 3.6-2.8 6.4-6.4 6.4-3.6 0-6.4-2.8-6.4-6.4 0-3.6 2.8-6.4 6.4-6.4zM30 306.4L52.4 97.2h39.2v13.2c-8 2.8-13.6 10.4-13.6 19.2 0 11.2 9.2 20.4 20.4 20.4s20.4-9.2 20.4-20.4c0-8.8-5.6-16.4-13.6-19.2V97.2h110.4v13.2c-8 2.8-13.6 10.4-13.6 19.2 0 11.2 9.2 20.4 20.4 20.4s20.4-9.2 20.4-20.4c0-8.8-5.6-16.4-13.6-19.2V97.2H270l22.4 209.2H30z" fill="#FFF"/></svg>