<svg xmlns="http://www.w3.org/2000/svg" width="512" height="512"><path d="M504.527 67.909c-8.611-6.92-21.2-5.547-28.118 3.063L210.291 402.169c-3.612 3.863-8.494 6.101-13.797 6.314-5.459.22-10.629-1.73-14.523-5.431L33.839 261.061c-7.975-7.643-20.634-7.374-28.278.599-7.643 7.974-7.375 20.634.599 28.278l148.191 142.048c11.26 10.703 25.83 16.515 41.268 16.515.825 0 1.655-.017 2.484-.051 16.352-.657 31.371-7.734 42.288-19.926.237-.265.467-.537.691-.814L507.59 96.027c6.918-8.611 5.547-21.199-3.063-28.118z" fill="#555"/></svg>