<svg width="158" height="40" viewBox="0 0 158 40" fill="none" xmlns="http://www.w3.org/2000/svg">
<g filter="url(#filter0_d)">
<path d="M13.838 0C15.8523 0.710093 14.3416 5.84109 13.6778 7.03221C12.3959 9.36865 10.3816 11.0179 8.64189 12.9878C6.60465 15.3243 4.81921 17.9127 4.97944 21.005C5.27701 26.6858 11.9152 30.3508 16.6535 32C16.4475 31.9313 16.5162 30.0759 16.5162 29.8697C16.5391 28.9535 16.6535 28.0372 16.8595 27.121C17.7065 23.3873 20.5449 20.753 21.9869 17.2713C23.2917 14.1102 22.9483 9.9413 21.2316 6.78024C19.7437 4.0544 16.8366 1.05369 13.838 0Z" fill="white"/>
<path d="M17.5691 32C17.5691 32 17.5691 31.3816 17.5691 31.3586C17.5462 28.5183 18.3016 26.0444 19.7208 23.6163C21.6894 20.272 24.5049 16.9048 23.7495 12.7588C23.8182 13.1482 24.2073 13.8354 24.3904 14.2019C24.6422 14.66 24.8711 15.1181 25.0771 15.5763C25.4663 16.4238 25.9241 17.1568 26.2674 18.0272C27.183 20.3407 27.5493 23.1811 25.6036 25.0823C24.1844 26.4567 22.399 27.3042 20.8882 28.5641C19.6521 29.572 18.5763 30.7631 17.5691 32Z" fill="#ECD7CF"/>
</g>
<path d="M40.5985 25C40.4252 25 40.2779 24.9393 40.1565 24.818C40.0352 24.6967 39.9745 24.5493 39.9745 24.376V7.45C39.9745 7.25933 40.0265 7.10333 40.1305 6.982C40.2519 6.86067 40.4079 6.8 40.5985 6.8H48.1385C50.1665 6.8 51.6745 7.25067 52.6625 8.152C53.6679 9.036 54.1705 10.2493 54.1705 11.792C54.1705 12.6933 53.9452 13.4647 53.4945 14.106C53.0612 14.73 52.5499 15.1807 51.9605 15.458C52.6885 15.7873 53.2952 16.3247 53.7805 17.07C54.2832 17.8153 54.5345 18.6647 54.5345 19.618C54.5345 21.23 53.9885 22.53 52.8965 23.518C51.8219 24.506 50.3052 25 48.3465 25H40.5985ZM47.6705 14.262C48.5719 14.262 49.2565 14.0453 49.7245 13.612C50.1925 13.1787 50.4265 12.598 50.4265 11.87C50.4265 11.1247 50.1925 10.5527 49.7245 10.154C49.2565 9.738 48.5719 9.53 47.6705 9.53H43.5885V14.262H47.6705ZM47.9305 22.244C48.8319 22.244 49.5339 22.0013 50.0365 21.516C50.5392 21.0133 50.7905 20.3807 50.7905 19.618C50.7905 18.838 50.5392 18.2053 50.0365 17.72C49.5339 17.2173 48.8319 16.966 47.9305 16.966H43.5885V22.244H47.9305ZM64.7928 25.26C62.4354 25.26 60.5981 24.662 59.2808 23.466C57.9634 22.27 57.2701 20.4933 57.2008 18.136C57.1834 17.6333 57.1748 16.8967 57.1748 15.926C57.1748 14.938 57.1834 14.1927 57.2008 13.69C57.2701 11.3847 57.9808 9.61667 59.3328 8.386C60.6848 7.15533 62.5048 6.54 64.7928 6.54C67.0808 6.54 68.9008 7.15533 70.2528 8.386C71.6221 9.61667 72.3414 11.3847 72.4108 13.69C72.4454 14.6953 72.4628 15.4407 72.4628 15.926C72.4628 16.394 72.4454 17.1307 72.4108 18.136C72.3241 20.4933 71.6221 22.27 70.3048 23.466C68.9874 24.662 67.1501 25.26 64.7928 25.26ZM64.7928 22.27C65.9541 22.27 66.8814 21.9233 67.5748 21.23C68.2681 20.5193 68.6408 19.4447 68.6928 18.006C68.7274 16.966 68.7448 16.264 68.7448 15.9C68.7448 15.5013 68.7274 14.7993 68.6928 13.794C68.6408 12.3553 68.2681 11.2893 67.5748 10.596C66.8814 9.88533 65.9541 9.53 64.7928 9.53C63.6488 9.53 62.7301 9.88533 62.0368 10.596C61.3434 11.2893 60.9708 12.3553 60.9188 13.794C60.9014 14.2967 60.8928 14.9987 60.8928 15.9C60.8928 16.784 60.9014 17.486 60.9188 18.006C60.9708 19.4447 61.3348 20.5193 62.0108 21.23C62.7041 21.9233 63.6314 22.27 64.7928 22.27ZM82.8709 25.26C80.5135 25.26 78.6762 24.662 77.3589 23.466C76.0415 22.27 75.3482 20.4933 75.2789 18.136C75.2615 17.6333 75.2529 16.8967 75.2529 15.926C75.2529 14.938 75.2615 14.1927 75.2789 13.69C75.3482 11.3847 76.0589 9.61667 77.4109 8.386C78.7629 7.15533 80.5829 6.54 82.8709 6.54C85.1589 6.54 86.9789 7.15533 88.3309 8.386C89.7002 9.61667 90.4195 11.3847 90.4889 13.69C90.5235 14.6953 90.5409 15.4407 90.5409 15.926C90.5409 16.394 90.5235 17.1307 90.4889 18.136C90.4022 20.4933 89.7002 22.27 88.3829 23.466C87.0655 24.662 85.2282 25.26 82.8709 25.26ZM82.8709 22.27C84.0322 22.27 84.9595 21.9233 85.6529 21.23C86.3462 20.5193 86.7189 19.4447 86.7709 18.006C86.8055 16.966 86.8229 16.264 86.8229 15.9C86.8229 15.5013 86.8055 14.7993 86.7709 13.794C86.7189 12.3553 86.3462 11.2893 85.6529 10.596C84.9595 9.88533 84.0322 9.53 82.8709 9.53C81.7269 9.53 80.8082 9.88533 80.1149 10.596C79.4215 11.2893 79.0489 12.3553 78.9969 13.794C78.9795 14.2967 78.9709 14.9987 78.9709 15.9C78.9709 16.784 78.9795 17.486 78.9969 18.006C79.0489 19.4447 79.4129 20.5193 80.0889 21.23C80.7822 21.9233 81.7095 22.27 82.8709 22.27ZM100.273 25.26C98.7303 25.26 97.4043 25.026 96.295 24.558C95.1857 24.09 94.345 23.4747 93.773 22.712C93.201 21.9493 92.8977 21.126 92.863 20.242C92.863 20.086 92.915 19.956 93.019 19.852C93.123 19.748 93.253 19.696 93.409 19.696H95.723C95.931 19.696 96.087 19.7393 96.191 19.826C96.3123 19.8953 96.425 20.0167 96.529 20.19C96.7023 20.7793 97.101 21.2733 97.725 21.672C98.349 22.0707 99.1983 22.27 100.273 22.27C101.504 22.27 102.431 22.0707 103.055 21.672C103.679 21.256 103.991 20.684 103.991 19.956C103.991 19.4707 103.826 19.072 103.497 18.76C103.185 18.448 102.708 18.1793 102.067 17.954C101.443 17.7287 100.507 17.4513 99.259 17.122C97.2137 16.6367 95.7143 15.9953 94.761 15.198C93.825 14.3833 93.357 13.2307 93.357 11.74C93.357 10.7347 93.6257 9.842 94.163 9.062C94.7177 8.282 95.5063 7.66667 96.529 7.216C97.569 6.76533 98.7737 6.54 100.143 6.54C101.564 6.54 102.795 6.79133 103.835 7.294C104.875 7.79667 105.664 8.42933 106.201 9.192C106.756 9.93733 107.05 10.6827 107.085 11.428C107.085 11.584 107.033 11.714 106.929 11.818C106.825 11.922 106.695 11.974 106.539 11.974H104.121C103.757 11.974 103.506 11.8093 103.367 11.48C103.263 10.9253 102.916 10.466 102.327 10.102C101.738 9.72067 101.01 9.53 100.143 9.53C99.1723 9.53 98.4097 9.712 97.855 10.076C97.3003 10.44 97.023 10.9687 97.023 11.662C97.023 12.1473 97.1617 12.546 97.439 12.858C97.7163 13.17 98.1497 13.4473 98.739 13.69C99.3457 13.9327 100.212 14.2013 101.339 14.496C102.864 14.8427 104.078 15.2327 104.979 15.666C105.898 16.0993 106.574 16.6453 107.007 17.304C107.44 17.9627 107.657 18.8033 107.657 19.826C107.657 20.9353 107.345 21.906 106.721 22.738C106.114 23.5527 105.248 24.1767 104.121 24.61C103.012 25.0433 101.729 25.26 100.273 25.26ZM115.062 25C114.888 25 114.741 24.9393 114.62 24.818C114.498 24.6967 114.438 24.5493 114.438 24.376V9.998H109.628C109.454 9.998 109.307 9.93733 109.186 9.816C109.064 9.69467 109.004 9.54733 109.004 9.374V7.45C109.004 7.25933 109.056 7.10333 109.16 6.982C109.281 6.86067 109.437 6.8 109.628 6.8H122.888C123.078 6.8 123.234 6.86067 123.356 6.982C123.477 7.10333 123.538 7.25933 123.538 7.45V9.374C123.538 9.54733 123.477 9.69467 123.356 9.816C123.234 9.93733 123.078 9.998 122.888 9.998H118.104V24.376C118.104 24.5493 118.043 24.6967 117.922 24.818C117.8 24.9393 117.644 25 117.454 25H115.062ZM131.584 25C131.41 25 131.263 24.9393 131.142 24.818C131.02 24.6967 130.96 24.5493 130.96 24.376V18.5L124.824 7.632C124.772 7.54533 124.746 7.45 124.746 7.346C124.746 7.19 124.798 7.06 124.902 6.956C125.006 6.852 125.127 6.8 125.266 6.8H127.58C127.77 6.8 127.926 6.852 128.048 6.956C128.186 7.06 128.29 7.17267 128.36 7.294L132.78 14.86L137.174 7.294C137.382 6.96467 137.65 6.8 137.98 6.8H140.268C140.424 6.8 140.554 6.852 140.658 6.956C140.762 7.06 140.814 7.19 140.814 7.346C140.814 7.45 140.788 7.54533 140.736 7.632L134.6 18.5V24.376C134.6 24.5493 134.539 24.6967 134.418 24.818C134.296 24.9393 134.14 25 133.95 25H131.584ZM149.125 25.26C147.582 25.26 146.256 25.026 145.147 24.558C144.037 24.09 143.197 23.4747 142.625 22.712C142.053 21.9493 141.749 21.126 141.715 20.242C141.715 20.086 141.767 19.956 141.871 19.852C141.975 19.748 142.105 19.696 142.261 19.696H144.575C144.783 19.696 144.939 19.7393 145.043 19.826C145.164 19.8953 145.277 20.0167 145.381 20.19C145.554 20.7793 145.953 21.2733 146.577 21.672C147.201 22.0707 148.05 22.27 149.125 22.27C150.355 22.27 151.283 22.0707 151.907 21.672C152.531 21.256 152.843 20.684 152.843 19.956C152.843 19.4707 152.678 19.072 152.349 18.76C152.037 18.448 151.56 18.1793 150.919 17.954C150.295 17.7287 149.359 17.4513 148.111 17.122C146.065 16.6367 144.566 15.9953 143.613 15.198C142.677 14.3833 142.209 13.2307 142.209 11.74C142.209 10.7347 142.477 9.842 143.015 9.062C143.569 8.282 144.358 7.66667 145.381 7.216C146.421 6.76533 147.625 6.54 148.995 6.54C150.416 6.54 151.647 6.79133 152.687 7.294C153.727 7.79667 154.515 8.42933 155.053 9.192C155.607 9.93733 155.902 10.6827 155.937 11.428C155.937 11.584 155.885 11.714 155.781 11.818C155.677 11.922 155.547 11.974 155.391 11.974H152.973C152.609 11.974 152.357 11.8093 152.219 11.48C152.115 10.9253 151.768 10.466 151.179 10.102C150.589 9.72067 149.861 9.53 148.995 9.53C148.024 9.53 147.261 9.712 146.707 10.076C146.152 10.44 145.875 10.9687 145.875 11.662C145.875 12.1473 146.013 12.546 146.291 12.858C146.568 13.17 147.001 13.4473 147.591 13.69C148.197 13.9327 149.064 14.2013 150.191 14.496C151.716 14.8427 152.929 15.2327 153.831 15.666C154.749 16.0993 155.425 16.6453 155.859 17.304C156.292 17.9627 156.509 18.8033 156.509 19.826C156.509 20.9353 156.197 21.906 155.573 22.738C154.966 23.5527 154.099 24.1767 152.973 24.61C151.863 25.0433 150.581 25.26 149.125 25.26Z" fill="white"/>
<defs>
<filter id="filter0_d" x="0.969421" y="0" width="30.042" height="40" filterUnits="userSpaceOnUse" color-interpolation-filters="sRGB">
<feFlood flood-opacity="0" result="BackgroundImageFix"/>
<feColorMatrix in="SourceAlpha" type="matrix" values="0 0 0 0 0 0 0 0 0 0 0 0 0 0 0 0 0 0 127 0"/>
<feOffset dy="4"/>
<feGaussianBlur stdDeviation="2"/>
<feColorMatrix type="matrix" values="0 0 0 0 0 0 0 0 0 0 0 0 0 0 0 0 0 0 0.25 0"/>
<feBlend mode="normal" in2="BackgroundImageFix" result="effect1_dropShadow"/>
<feBlend mode="normal" in="SourceGraphic" in2="effect1_dropShadow" result="shape"/>
</filter>
</defs>
</svg>
