<svg id="Layer_1" xmlns="http://www.w3.org/2000/svg" viewBox="0 0 34 21.5"><style>.st3{fill:#f79e1b}</style><path id="XMLID_1_" d="M0 0h34v21.5H0z"/><g id="XMLID_4703_"><path id="XMLID_4607_" d="M9.5 19.8v-1.2c0-.5-.3-.8-.7-.8-.2 0-.5.1-.7.3-.1-.2-.3-.3-.6-.3-.2 0-.4.1-.6.3v-.2h-.4v1.9h.4v-1.1c0-.3.2-.5.5-.5s.4.2.4.5v1.1h.4v-1.1c0-.3.2-.5.5-.5s.4.2.4.5v1.1h.4zm6.3-1.9h-.7v-.6h-.4v.6h-.4v.4h.4v.9c0 .4.2.7.7.7.2 0 .4-.1.5-.1l-.1-.3c-.1.1-.3.1-.4.1-.2 0-.3-.1-.3-.3v-.9h.7v-.5zm3.6-.1c-.2 0-.4.1-.5.3v-.2h-.4v1.9h.4v-1.1c0-.3.2-.5.4-.5h.3l.1-.4h-.3zM14 18c-.2-.1-.5-.2-.8-.2-.5 0-.8.2-.8.6 0 .3.2.5.7.6h.2c.2 0 .4.1.4.2s-.2.2-.5.2-.5-.1-.6-.2l-.2.3c.3.2.6.3.8.3.6 0 .9-.3.9-.6s-.2-.5-.7-.6h-.2c-.2 0-.3-.1-.3-.2s.2-.2.4-.2.5.1.6.2l.1-.4zm5.8.8c0 .6.4 1 1 1 .3 0 .5-.1.7-.2l-.2-.3c-.2.1-.3.2-.5.2-.3 0-.6-.3-.6-.7 0-.4.3-.7.6-.7.2 0 .3.1.5.2l.2-.3c-.2-.2-.4-.2-.7-.2-.6 0-1 .4-1 1zm-2.7-1c-.6 0-1 .4-1 1s.4 1 1 1c.3 0 .6-.1.8-.3l-.2-.3c-.2.1-.4.2-.6.2-.3 0-.5-.2-.6-.5H18v-.2c0-.5-.4-.9-.9-.9zm0 .4c.3 0 .5.2.5.5h-1c0-.3.2-.5.5-.5zm-5.2.6v-1h-.4v.2c-.1-.2-.4-.3-.6-.3-.5 0-1 .4-1 1s.4 1 1 1c.3 0 .5-.1.6-.3v.2h.4v-.8zm-1.6 0c0-.4.2-.7.6-.7.4 0 .6.3.6.7s-.2.7-.6.7c-.4 0-.6-.3-.6-.7zm14.9-1c-.2 0-.4.1-.5.3v-.2h-.4v1.9h.4v-1.1c0-.3.2-.5.4-.5h.3l.1-.4h-.3zm3.1 1.7c.1 0 .1 0 0 0 .1 0 .1 0 .1.1v.4H28v-.4c.2 0 .2-.1.3-.1zm0 .4c.1 0 .1 0 0 0h.1v-.2h-.2v.2c0-.1.1-.1.1 0zm0-.3c.1 0 .1 0 0 0 .1 0 .1.1 0 0 .1.1.1.1 0 0v.1l.1.1-.1-.1v.1-.2zm0 .1c.1 0 .1 0 0 0 .1 0 .1 0 0 0 .1 0 .1 0 0 0 .1 0 .1 0 0 0zm-4.6-.9v-1h-.4v.2c-.1-.2-.4-.3-.6-.3-.5 0-1 .4-1 1s.4 1 1 1c.3 0 .5-.1.6-.3v.2h.4v-.8zm-1.5 0c0-.4.2-.7.6-.7.4 0 .6.3.6.7s-.2.7-.6.7c-.4 0-.6-.3-.6-.7zm5.4 0v-1.7h-.4v1c-.1-.2-.4-.3-.6-.3-.5 0-1 .4-1 1s.4 1 1 1c.3 0 .5-.1.6-.3v.2h.4v-.9zm-1.5 0c0-.4.2-.7.6-.7.4 0 .6.3.6.7s-.2.7-.6.7c-.4 0-.6-.3-.6-.7z" fill="#fff"/><g id="XMLID_4571_"><path id="XMLID_4635_" fill="#ff5f00" d="M13.5 3.2h7v11.4h-7z"/><path id="XMLID_4576_" d="M14.2 8.9c0-2.3 1.1-4.4 2.8-5.7-1.2-1-2.8-1.6-4.5-1.6-4 0-7.3 3.3-7.3 7.3s3.3 7.3 7.3 7.3c1.7 0 3.3-.6 4.5-1.6-1.7-1.3-2.8-3.4-2.8-5.7z" fill="#eb001b"/><path id="XMLID_4707_" class="st3" d="M28.1 13.4v-.2h.1-.2l.1.2zm.4 0v-.3h-.1l-.1.2-.1-.2h-.1v.3h.1v-.2l.1.2h.1l.1-.2v.2z"/><path id="XMLID_4631_" class="st3" d="M28.8 8.9c0 4-3.3 7.3-7.3 7.3-1.7 0-3.3-.6-4.5-1.6a7.202 7.202 0 0 0 0-11.4c1.2-1 2.8-1.6 4.5-1.6 4 0 7.3 3.3 7.3 7.3z"/></g></g></svg>