<svg id="Layer_1" xmlns="http://www.w3.org/2000/svg" viewBox="0 0 960 960"><style>.st0{fill:#05a5d1}</style><g id="XMLID_17_"><path id="XMLID_21_" class="st0" d="M960.2 478.3c0-63.5-79.5-123.7-201.5-161C786.8 193 774.3 94.1 719.2 62.4c-12.7-7.4-27.6-10.9-43.8-10.9v43.6c9 0 16.2 1.8 22.3 5.1 26.6 15.2 38.1 73.3 29.1 147.9-2.1 18.4-5.7 37.7-10 57.5-38.3-9.4-80.1-16.6-124.1-21.3-26.4-36.2-53.7-69-81.3-97.7 63.7-59.2 123.5-91.7 164.2-91.7V51.3c-53.7 0-124.1 38.3-195.2 104.8-71.1-66.1-141.5-104-195.2-104v43.6c40.5 0 100.5 32.2 164.2 91.1-27.4 28.7-54.7 61.4-80.7 97.5-44.2 4.7-86 11.9-124.3 21.5-4.5-19.5-7.8-38.5-10.2-56.7-9.2-74.7 2.1-132.7 28.5-148.1 5.9-3.5 13.5-5.1 22.5-5.1V52.3c-16.4 0-31.3 3.5-44.2 10.9-54.9 31.7-67.2 130.4-38.9 254.3C80.5 355 1.4 415 1.4 478.3c0 63.5 79.5 123.7 201.5 161-28.1 124.3-15.6 223.2 39.5 254.8 12.7 7.4 27.6 10.9 44 10.9 53.7 0 124.1-38.3 195.2-104.8 71.1 66.1 141.5 104 195.2 104 16.4 0 31.3-3.5 44.2-10.9 54.9-31.7 67.2-130.4 38.9-254.3 121.1-37.2 200.3-97.4 200.3-160.7zM705.7 348c-7.2 25.2-16.2 51.2-26.4 77.2-8-15.6-16.4-31.3-25.6-46.9-9-15.6-18.6-30.9-28.1-45.7 27.8 4 54.5 9.1 80.1 15.4zm-89.5 208.1c-15.2 26.4-30.9 51.4-47.1 74.7-29.1 2.5-58.6 3.9-88.3 3.9-29.5 0-59-1.4-87.9-3.7-16.2-23.3-32.1-48.1-47.3-74.3-14.9-25.6-28.3-51.6-40.7-77.8 12.1-26.2 25.8-52.4 40.5-78 15.2-26.4 30.9-51.4 47.1-74.7 29.1-2.5 58.6-3.9 88.3-3.9 29.5 0 59 1.4 87.9 3.7 16.2 23.3 32.1 48.1 47.3 74.3 14.9 25.6 28.3 51.6 40.7 77.8-12.3 26.2-25.8 52.4-40.5 78zm63.2-25.4c10.6 26.2 19.5 52.4 27 77.8-25.6 6.3-52.6 11.5-80.5 15.6 9.6-15 19.2-30.5 28.1-46.3 8.9-15.6 17.3-31.5 25.4-47.1zM481.2 739.2c-18.2-18.8-36.4-39.7-54.3-62.5 17.6.8 35.6 1.4 53.7 1.4 18.4 0 36.5-.4 54.3-1.4-17.6 22.8-35.7 43.8-53.7 62.5zM335.8 624.1c-27.8-4.1-54.5-9.2-80.1-15.4 7.2-25.2 16.2-51.2 26.4-77.2 8 15.6 16.4 31.3 25.6 46.9 9.1 15.6 18.5 30.9 28.1 45.7zm144.4-406.7c18.2 18.8 36.4 39.7 54.3 62.5-17.6-.8-35.6-1.4-53.7-1.4-18.4 0-36.5.4-54.3 1.4 17.6-22.8 35.7-43.7 53.7-62.5zM335.6 332.5c-9.6 15-19.2 30.5-28.1 46.3-9 15.6-17.4 31.3-25.4 46.9-10.6-26.2-19.5-52.4-27-77.8 25.6-6 52.5-11.3 80.5-15.4zM158.7 577.2C89.5 547.7 44.8 509 44.8 478.3s44.8-69.6 113.9-98.9c16.8-7.2 35.2-13.7 54.1-19.7 11.1 38.3 25.8 78.2 44 119-18 40.7-32.4 80.3-43.4 118.4-19.3-6-37.7-12.7-54.7-19.9zm105.2 279.3c-26.6-15.2-38.1-73.3-29.1-147.9 2.1-18.4 5.7-37.7 10-57.5 38.3 9.4 80.1 16.6 124.1 21.3 26.4 36.2 53.7 69 81.3 97.7-63.7 59.2-123.5 91.7-164.2 91.7-8.8-.2-16.3-2-22.1-5.3zm463.5-148.9c9.2 74.7-2.1 132.7-28.5 148.1-5.9 3.5-13.5 5.1-22.5 5.1-40.5 0-100.5-32.2-164.2-91.1 27.4-28.7 54.7-61.4 80.7-97.5 44.2-4.7 86-11.9 124.3-21.5 4.6 19.7 8.1 38.7 10.2 56.9zm75.3-130.4c-16.8 7.2-35.2 13.7-54.1 19.7-11.1-38.3-25.8-78.2-44-119 18-40.7 32.4-80.3 43.4-118.4 19.3 6.1 37.7 12.7 54.9 19.9 69.2 29.5 113.9 68.2 113.9 98.9-.2 30.7-44.9 69.6-114.1 98.9z"/><circle id="XMLID_2_" class="st0" cx="480.6" cy="478.3" r="89.3"/></g></svg>