<svg width="154" height="34" viewBox="0 0 154 34" fill="none" xmlns="http://www.w3.org/2000/svg">
<g filter="url(#filter0_d)">
<path d="M9.87474 0C11.8905 0.710093 10.3787 5.84109 9.71439 7.03221C8.43164 9.36865 6.41589 11.0179 4.67502 12.9878C2.63637 15.3243 0.849682 17.9127 1.01003 21.005C1.30781 26.6858 7.95061 30.3508 12.6922 32C12.486 31.9313 12.5548 30.0759 12.5548 29.8697C12.5777 28.9535 12.6922 28.0372 12.8984 27.121C13.7459 23.3873 16.5863 20.753 18.0294 17.2713C19.335 14.1102 18.9914 9.9413 17.2734 6.78024C15.7845 4.0544 12.8755 1.05369 9.87474 0Z" fill="#D44816"/>
<path d="M13.6084 32C13.6084 32 13.6084 31.3816 13.6084 31.3586C13.5855 28.5183 14.3414 26.0444 15.7616 23.6163C17.7315 20.272 20.549 16.9048 19.7931 12.7588C19.8618 13.1482 20.2512 13.8354 20.4345 14.2019C20.6864 14.66 20.9155 15.1181 21.1217 15.5763C21.5111 16.4238 21.9692 17.1568 22.3128 18.0272C23.229 20.3407 23.5955 23.1811 21.6485 25.0823C20.2283 26.4567 18.4416 27.3042 16.9298 28.5641C15.6929 29.572 14.6163 30.7631 13.6084 32Z" fill="#ECD7CF"/>
</g>
<path d="M36.652 25C36.4787 25 36.3313 24.9393 36.21 24.818C36.0887 24.6967 36.028 24.5493 36.028 24.376V7.45C36.028 7.25933 36.08 7.10333 36.184 6.982C36.3053 6.86067 36.4613 6.8 36.652 6.8H44.192C46.22 6.8 47.7367 7.25067 48.742 8.152C49.7473 9.036 50.25 10.2493 50.25 11.792C50.25 12.6933 50.0247 13.4647 49.574 14.106C49.1407 14.73 48.6293 15.1807 48.04 15.458C48.768 15.7873 49.3833 16.3247 49.886 17.07C50.3887 17.8153 50.64 18.6647 50.64 19.618C50.64 21.23 50.094 22.53 49.002 23.518C47.91 24.506 46.3847 25 44.426 25H36.652ZM43.724 14.262C44.608 14.262 45.284 14.0453 45.752 13.612C46.2373 13.1787 46.48 12.598 46.48 11.87C46.48 11.142 46.246 10.5787 45.778 10.18C45.31 9.78133 44.6253 9.582 43.724 9.582H39.694V14.262H43.724ZM43.984 22.218C44.8853 22.218 45.5873 21.9753 46.09 21.49C46.5927 20.9873 46.844 20.3547 46.844 19.592C46.844 18.8293 46.584 18.2053 46.064 17.72C45.5613 17.2173 44.868 16.966 43.984 16.966H39.694V22.218H43.984ZM60.8976 25.26C58.5229 25.26 56.6769 24.662 55.3596 23.466C54.0423 22.27 53.3489 20.4933 53.2796 18.136C53.2623 17.6333 53.2536 16.8967 53.2536 15.926C53.2536 14.938 53.2623 14.1927 53.2796 13.69C53.3489 11.3847 54.0596 9.61667 55.4116 8.386C56.7636 7.15533 58.5923 6.54 60.8976 6.54C63.1856 6.54 65.0056 7.15533 66.3576 8.386C67.7269 9.61667 68.4463 11.3847 68.5156 13.69C68.5503 14.6953 68.5676 15.4407 68.5676 15.926C68.5676 16.394 68.5503 17.1307 68.5156 18.136C68.4463 20.4933 67.7443 22.27 66.4096 23.466C65.0923 24.662 63.2549 25.26 60.8976 25.26ZM60.8976 22.244C62.0589 22.244 62.9776 21.8973 63.6536 21.204C64.3296 20.5107 64.6936 19.4447 64.7456 18.006C64.7803 16.966 64.7976 16.264 64.7976 15.9C64.7976 15.5013 64.7803 14.7993 64.7456 13.794C64.6936 12.3727 64.3209 11.3153 63.6276 10.622C62.9343 9.91133 62.0243 9.556 60.8976 9.556C59.7536 9.556 58.8349 9.91133 58.1416 10.622C57.4483 11.3153 57.0843 12.3727 57.0496 13.794C57.0323 14.2967 57.0236 14.9987 57.0236 15.9C57.0236 16.784 57.0323 17.486 57.0496 18.006C57.0843 19.4273 57.4396 20.4933 58.1156 21.204C58.8089 21.8973 59.7363 22.244 60.8976 22.244ZM78.9757 25.26C76.6011 25.26 74.7551 24.662 73.4377 23.466C72.1204 22.27 71.4271 20.4933 71.3577 18.136C71.3404 17.6333 71.3317 16.8967 71.3317 15.926C71.3317 14.938 71.3404 14.1927 71.3577 13.69C71.4271 11.3847 72.1377 9.61667 73.4897 8.386C74.8417 7.15533 76.6704 6.54 78.9757 6.54C81.2637 6.54 83.0837 7.15533 84.4357 8.386C85.8051 9.61667 86.5244 11.3847 86.5937 13.69C86.6284 14.6953 86.6457 15.4407 86.6457 15.926C86.6457 16.394 86.6284 17.1307 86.5937 18.136C86.5244 20.4933 85.8224 22.27 84.4877 23.466C83.1704 24.662 81.3331 25.26 78.9757 25.26ZM78.9757 22.244C80.1371 22.244 81.0557 21.8973 81.7317 21.204C82.4077 20.5107 82.7717 19.4447 82.8237 18.006C82.8584 16.966 82.8757 16.264 82.8757 15.9C82.8757 15.5013 82.8584 14.7993 82.8237 13.794C82.7717 12.3727 82.3991 11.3153 81.7057 10.622C81.0124 9.91133 80.1024 9.556 78.9757 9.556C77.8317 9.556 76.9131 9.91133 76.2197 10.622C75.5264 11.3153 75.1624 12.3727 75.1277 13.794C75.1104 14.2967 75.1017 14.9987 75.1017 15.9C75.1017 16.784 75.1104 17.486 75.1277 18.006C75.1624 19.4273 75.5177 20.4933 76.1937 21.204C76.8871 21.8973 77.8144 22.244 78.9757 22.244ZM96.3779 25.26C94.8179 25.26 93.4832 25.026 92.3739 24.558C91.2645 24.09 90.4239 23.4747 89.8519 22.712C89.2799 21.9493 88.9765 21.1173 88.9419 20.216C88.9419 20.0773 88.9939 19.956 89.0979 19.852C89.2019 19.7307 89.3319 19.67 89.4879 19.67H91.8539C92.0445 19.67 92.2005 19.7133 92.3219 19.8C92.4432 19.8867 92.5559 20.008 92.6599 20.164C92.8332 20.7533 93.2232 21.2473 93.8299 21.646C94.4539 22.0447 95.3032 22.244 96.3779 22.244C97.5912 22.244 98.5012 22.0447 99.1079 21.646C99.7319 21.23 100.044 20.6667 100.044 19.956C100.044 19.488 99.8879 19.098 99.5759 18.786C99.2639 18.474 98.7872 18.2053 98.1459 17.98C97.5219 17.7373 96.5859 17.4513 95.3379 17.122C93.2925 16.6367 91.7932 15.9953 90.8399 15.198C89.8865 14.4007 89.4099 13.2567 89.4099 11.766C89.4099 10.7607 89.6872 9.868 90.2419 9.088C90.7965 8.29067 91.5852 7.66667 92.6079 7.216C93.6479 6.76533 94.8525 6.54 96.2219 6.54C97.6605 6.54 98.8999 6.79133 99.9399 7.294C100.997 7.79667 101.795 8.42933 102.332 9.192C102.887 9.93733 103.181 10.6827 103.216 11.428C103.216 11.5667 103.164 11.6967 103.06 11.818C102.956 11.922 102.826 11.974 102.67 11.974H100.2C99.8185 11.974 99.5585 11.818 99.4199 11.506C99.3332 10.9513 98.9952 10.492 98.4059 10.128C97.8165 9.74667 97.0885 9.556 96.2219 9.556C95.2685 9.556 94.5145 9.738 93.9599 10.102C93.4225 10.466 93.1539 10.9947 93.1539 11.688C93.1539 12.156 93.2925 12.546 93.5699 12.858C93.8472 13.17 94.2805 13.4473 94.8699 13.69C95.4592 13.9153 96.3172 14.1753 97.4439 14.47C98.9865 14.8167 100.209 15.2067 101.11 15.64C102.029 16.0733 102.705 16.6193 103.138 17.278C103.571 17.9367 103.788 18.7773 103.788 19.8C103.788 20.9267 103.476 21.906 102.852 22.738C102.245 23.5527 101.379 24.1767 100.252 24.61C99.1425 25.0433 97.8512 25.26 96.3779 25.26ZM111.166 25C110.992 25 110.845 24.9393 110.724 24.818C110.602 24.6967 110.542 24.5493 110.542 24.376V10.05H105.732C105.558 10.05 105.411 9.98933 105.29 9.868C105.168 9.74667 105.108 9.59067 105.108 9.4V7.45C105.108 7.25933 105.16 7.10333 105.264 6.982C105.385 6.86067 105.541 6.8 105.732 6.8H119.018C119.208 6.8 119.364 6.86067 119.486 6.982C119.607 7.10333 119.668 7.25933 119.668 7.45V9.4C119.668 9.59067 119.607 9.74667 119.486 9.868C119.364 9.98933 119.208 10.05 119.018 10.05H114.234V24.376C114.234 24.5493 114.173 24.6967 114.052 24.818C113.948 24.9393 113.8 25 113.61 25H111.166ZM127.713 25C127.54 25 127.393 24.9393 127.271 24.818C127.15 24.6967 127.089 24.5493 127.089 24.376V18.526L120.927 7.632C120.875 7.476 120.849 7.38067 120.849 7.346C120.849 7.19 120.901 7.06 121.005 6.956C121.127 6.852 121.257 6.8 121.395 6.8H123.735C124.065 6.8 124.333 6.96467 124.541 7.294L128.909 14.834L133.303 7.294C133.373 7.17267 133.468 7.06 133.589 6.956C133.728 6.852 133.893 6.8 134.083 6.8H136.423C136.579 6.8 136.709 6.852 136.813 6.956C136.917 7.06 136.969 7.19 136.969 7.346C136.969 7.45 136.943 7.54533 136.891 7.632L130.755 18.526V24.376C130.755 24.5667 130.695 24.7227 130.573 24.844C130.452 24.948 130.296 25 130.105 25H127.713ZM145.306 25.26C143.746 25.26 142.411 25.026 141.302 24.558C140.192 24.09 139.352 23.4747 138.78 22.712C138.208 21.9493 137.904 21.1173 137.87 20.216C137.87 20.0773 137.922 19.956 138.026 19.852C138.13 19.7307 138.26 19.67 138.416 19.67H140.782C140.972 19.67 141.128 19.7133 141.25 19.8C141.371 19.8867 141.484 20.008 141.588 20.164C141.761 20.7533 142.151 21.2473 142.758 21.646C143.382 22.0447 144.231 22.244 145.306 22.244C146.519 22.244 147.429 22.0447 148.036 21.646C148.66 21.23 148.972 20.6667 148.972 19.956C148.972 19.488 148.816 19.098 148.504 18.786C148.192 18.474 147.715 18.2053 147.074 17.98C146.45 17.7373 145.514 17.4513 144.266 17.122C142.22 16.6367 140.721 15.9953 139.768 15.198C138.814 14.4007 138.338 13.2567 138.338 11.766C138.338 10.7607 138.615 9.868 139.17 9.088C139.724 8.29067 140.513 7.66667 141.536 7.216C142.576 6.76533 143.78 6.54 145.15 6.54C146.588 6.54 147.828 6.79133 148.868 7.294C149.925 7.79667 150.722 8.42933 151.26 9.192C151.814 9.93733 152.109 10.6827 152.144 11.428C152.144 11.5667 152.092 11.6967 151.988 11.818C151.884 11.922 151.754 11.974 151.598 11.974H149.128C148.746 11.974 148.486 11.818 148.348 11.506C148.261 10.9513 147.923 10.492 147.334 10.128C146.744 9.74667 146.016 9.556 145.15 9.556C144.196 9.556 143.442 9.738 142.888 10.102C142.35 10.466 142.082 10.9947 142.082 11.688C142.082 12.156 142.22 12.546 142.498 12.858C142.775 13.17 143.208 13.4473 143.798 13.69C144.387 13.9153 145.245 14.1753 146.372 14.47C147.914 14.8167 149.136 15.2067 150.038 15.64C150.956 16.0733 151.632 16.6193 152.066 17.278C152.499 17.9367 152.716 18.7773 152.716 19.8C152.716 20.9267 152.404 21.906 151.78 22.738C151.173 23.5527 150.306 24.1767 149.18 24.61C148.07 25.0433 146.779 25.26 145.306 25.26Z" fill="#D44816"/>
<defs>
<filter id="filter0_d" x="0" y="0" width="24.0573" height="34" filterUnits="userSpaceOnUse" color-interpolation-filters="sRGB">
<feFlood flood-opacity="0" result="BackgroundImageFix"/>
<feColorMatrix in="SourceAlpha" type="matrix" values="0 0 0 0 0 0 0 0 0 0 0 0 0 0 0 0 0 0 127 0"/>
<feOffset dy="1"/>
<feGaussianBlur stdDeviation="0.5"/>
<feColorMatrix type="matrix" values="0 0 0 0 0 0 0 0 0 0 0 0 0 0 0 0 0 0 0.25 0"/>
<feBlend mode="normal" in2="BackgroundImageFix" result="effect1_dropShadow"/>
<feBlend mode="normal" in="SourceGraphic" in2="effect1_dropShadow" result="shape"/>
</filter>
</defs>
</svg>
